<svg xmlns="http://www.w3.org/2000/svg" width="64" height="64" viewBox="0 0 64 64" fill="none">
  <defs>
    <linearGradient id="bg" x1="10" y1="8" x2="54" y2="58" gradientUnits="userSpaceOnUse">
      <stop stop-color="#00E676"/>
      <stop offset="0.45" stop-color="#42A5F5"/>
      <stop offset="1" stop-color="#0D1B2A"/>
    </linearGradient>
    <linearGradient id="inner" x1="20" y1="18" x2="46" y2="46" gradientUnits="userSpaceOnUse">
      <stop stop-color="#E9FFFF" stop-opacity="0.95"/>
      <stop offset="1" stop-color="#42A5F5" stop-opacity="0.18"/>
    </linearGradient>
    <filter id="shadow" x="-20%" y="-20%" width="140%" height="160%">
      <feDropShadow dx="0" dy="6" stdDeviation="6" flood-color="#000814" flood-opacity="0.35"/>
    </filter>
  </defs>
  <rect x="6" y="8" width="52" height="52" rx="16" fill="url(#bg)" filter="url(#shadow)"/>
  <path d="M10 35C10 35 19 28 33 28C47 28 54 21 54 21V49C54 49 47 56 33 56C19 56 10 49 10 49V35Z" fill="#0B1735" fill-opacity="0.35"/>
  <rect x="17" y="17" width="30" height="30" rx="10" fill="#11203E" fill-opacity="0.45"/>
  <path d="M22 16C27 13 36 13 43 18" stroke="white" stroke-opacity="0.7" stroke-width="4" stroke-linecap="round"/>
  <rect x="23" y="22" width="7.5" height="20" rx="3.75" fill="url(#inner)"/>
  <path d="M36 22C42 22 46 26 46 31.5C46 37 42 41 36 41V36C39.2 36 41 34.2 41 31.5C41 28.8 39.2 27 36 27V22Z" fill="url(#inner)"/>
  <circle cx="43" cy="20" r="4" fill="white" fill-opacity="0.9"/>
  <circle cx="37" cy="16" r="2.2" fill="white" fill-opacity="0.75"/>
</svg>
